HIERARCHY
ROOT Hips
{
	OFFSET 0.000000 0.000000 0.000000
	CHANNELS 6 Xposition Yposition Zposition Zrotation Yrotation Xrotation 
	JOINT LHipJoint
	{
		OFFSET 0.000000 0.000000 0.000000
		CHANNELS 3 Zrotation Yrotation Xrotation
		JOINT LeftUpLeg
		{
			OFFSET 1.363060 -1.794630 0.839290
			CHANNELS 3 Zrotation Yrotation Xrotation
			JOINT LeftLeg
			{
				OFFSET 2.448110 -6.726130 0.000000
				CHANNELS 3 Zrotation Yrotation Xrotation
				JOINT LeftFoot
				{
					OFFSET 2.562200 -7.039590 0.000000
					CHANNELS 3 Zrotation Yrotation Xrotation
					JOINT LeftToeBase
					{
						OFFSET 0.157640 -0.433110 2.322550
						CHANNELS 3 Zrotation Yrotation Xrotation
						End Site
						{
							OFFSET 0.000000 0.000000 0.000000
						}
					}
				}
			}
		}
	}
	JOINT RHipJoint
	{
		OFFSET 0.000000 0.000000 0.000000
		CHANNELS 3 Zrotation Yrotation Xrotation
		JOINT RightUpLeg
		{
			OFFSET -1.305520 -1.794630 0.839290
			CHANNELS 3 Zrotation Yrotation Xrotation
			JOINT RightLeg
			{
				OFFSET -2.542530 -6.985550 0.000000
				CHANNELS 3 Zrotation Yrotation Xrotation
				JOINT RightFoot
				{
					OFFSET -2.568260 -7.056230 0.000000
					CHANNELS 3 Zrotation Yrotation Xrotation
					JOINT RightToeBase
					{
						OFFSET -0.164730 -0.452590 2.363150
						CHANNELS 3 Zrotation Yrotation Xrotation
						End Site
						{
							OFFSET 0.000000 0.000000 0.000000
						}
					}
				}
			}
		}
	}
}
MOTION
Frames: 27
Frame Time: 0.008333
4.252071 17.372868 1.179724 11.456368 -46.919452 10.965067 -9.917796 -0.370300 5.000550 -7.697427 -17.990182 -22.284588 -2.839682 -1.413358 -4.812434 -0.427090 -0.096820 13.229558 0.586800 0.000000 -38.192400 10.248002 -0.282318 -4.635772 1.455494 -28.106304 -11.848801 1.586757 0.822736 -2.937877 -2.427799 -23.853116 3.533334 -8.218300 0.000000 -58.521800
4.266206 17.377317 1.184251 11.262590 -47.128266 11.268368 -9.918832 -0.346523 4.945589 -7.659306 -17.713240 -22.589707 -2.825421 -1.393668 -4.675781 -0.441047 -0.292390 13.209637 0.518100 0.000000 -38.169800 10.243627 -0.263620 -4.570715 1.648006 -27.666083 -11.941124 1.555054 0.867813 -3.144894 -2.547302 -24.148843 3.713040 -8.324900 -0.000001 -58.340000
4.282015 17.381153 1.186864 11.064647 -47.422071 11.557097 -9.918080 -0.328736 4.868773 -7.621699 -17.399687 -22.846772 -2.810010 -1.377972 -4.573618 -0.447691 -0.424646 13.183273 0.470000 0.000001 -38.165001 10.243849 -0.245229 -4.498532 1.824950 -27.149800 -12.001475 1.517926 0.914080 -3.393489 -2.689299 -24.427450 3.908753 -8.409299 0.000000 -58.166700
4.299298 17.384064 1.187278 10.866262 -47.788701 11.829664 -9.915799 -0.319433 4.773332 -7.578269 -17.070543 -23.054501 -2.792824 -1.366812 -4.508447 -0.447004 -0.480244 13.149228 0.447900 0.000000 -38.185600 10.247060 -0.227373 -4.424236 1.985143 -26.579768 -12.036915 1.478354 0.959510 -3.670874 -2.846434 -24.673699 4.107441 -8.465800 0.000001 -58.007799
4.317509 17.385877 1.185434 10.676075 -48.215900 12.082851 -9.912437 -0.320040 4.663851 -7.521034 -16.752590 -23.217227 -2.772048 -1.359525 -4.470299 -0.438108 -0.441930 13.100389 0.458600 0.000001 -38.235700 10.251201 -0.209696 -4.354178 2.127080 -25.981907 -12.054249 1.439373 1.002191 -3.962887 -3.009674 -24.871782 4.299364 -8.490600 -0.000000 -57.869300
4.336363 17.386605 1.181512 10.495172 -48.690127 12.317951 -9.910018 -0.330317 4.543621 -7.449483 -16.450217 -23.337277 -2.747931 -1.355987 -4.464232 -0.422108 -0.321549 13.042551 0.497800 0.000000 -38.312900 10.253484 -0.192193 -4.292343 2.254376 -25.379267 -12.064050 1.403899 1.041077 -4.254627 -3.169497 -25.012508 4.475462 -8.484000 -0.000000 -57.752199
4.355392 17.386362 1.175774 10.326511 -49.197779 12.536145 -9.909925 -0.348782 4.416799 -7.363412 -16.167036 -23.419818 -2.720663 -1.355576 -4.490001 -0.399966 -0.133665 12.979679 0.560100 0.000000 -38.413000 10.251910 -0.174693 -4.241814 2.371098 -24.793339 -12.075892 1.374312 1.075467 -4.531264 -3.316292 -25.090601 4.628490 -8.449200 -0.000000 -57.656500
4.374347 17.385329 1.168657 10.167099 -49.726214 12.738680 -9.912767 -0.373401 4.287767 -7.262846 -15.907334 -23.471743 -2.689860 -1.356959 -4.539422 -0.372124 0.109357 12.911650 0.640700 0.000000 -38.530300 10.245149 -0.156916 -4.205002 2.480815 -24.242319 -12.095763 1.352448 1.104826 -4.779633 -3.441740 -25.104134 4.754073 -8.390800 -0.000000 -57.581900
4.392778 17.383743 1.160604 10.017116 -50.263134 12.927126 -9.917696 -0.401258 4.162287 -7.146621 -15.679334 -23.503102 -2.654966 -1.358686 -4.597491 -0.338998 0.400043 12.834024 0.736700 0.000000 -38.657600 10.233481 -0.138889 -4.182566 2.586911 -23.740774 -12.128186 1.339374 1.128888 -4.988472 -3.539122 -25.055339 4.850328 -8.315400 -0.000000 -57.531400
4.410609 17.381876 1.152236 9.866423 -50.799428 13.109927 -9.926241 -0.428922 4.040149 -7.026912 -15.450603 -23.515327 -2.619667 -1.361150 -4.681413 -0.304212 0.688490 12.765786 0.830000 -0.000000 -38.790300 10.216727 -0.120824 -4.170470 2.696375 -23.288423 -12.180924 1.335172 1.148691 -5.150726 -3.605767 -24.955539 4.914296 -8.231000 -0.000000 -57.486100
4.427395 17.379982 1.144011 9.715143 -51.325695 13.288241 -9.935375 -0.453941 3.929036 -6.896962 -15.246644 -23.525802 -2.581590 -1.362286 -4.757398 -0.266811 0.991526 12.688930 0.927300 -0.000000 -38.920200 10.196751 -0.102893 -4.167675 2.809549 -22.891450 -12.254744 1.339517 1.164129 -5.261877 -3.639560 -24.812056 4.950441 -8.144700 0.000000 -57.460101
4.442962 17.378312 1.136454 9.557697 -51.836821 13.469628 -9.945421 -0.473666 3.829381 -6.765799 -15.046014 -23.539997 -2.543570 -1.362602 -4.833634 -0.229909 1.277554 12.614449 1.017500 0.000000 -39.042300 10.174442 -0.085616 -4.168611 2.930426 -22.541948 -12.354652 1.351308 1.176542 -5.322564 -3.642937 -24.638949 4.961126 -8.063400 -0.000001 -57.439500
4.457168 17.377006 1.129992 9.392181 -52.331285 13.657966 -9.955445 -0.486778 3.743091 -6.635004 -14.849380 -23.567838 -2.505850 -1.361709 -4.899793 -0.194471 1.543549 12.538590 1.100599 -0.000000 -39.153800 10.150848 -0.069126 -4.169210 3.059008 -22.230319 -12.481837 1.368881 1.186807 -5.336437 -3.619784 -24.449073 4.951201 -7.992200 -0.000000 -57.425000
4.469794 17.376142 1.124913 9.219743 -52.808139 13.857228 -9.964807 -0.492518 3.670972 -6.507593 -14.653579 -23.616515 -2.469412 -1.359987 -4.952407 -0.161501 1.784637 12.461034 1.175300 0.000000 -39.250500 10.127166 -0.053983 -4.164724 3.194994 -21.944883 -12.637508 1.390357 1.195981 -5.310969 -3.575596 -24.254846 4.927079 -7.935000 -0.000001 -57.418800
4.480711 17.375771 1.121401 9.043569 -53.271285 14.069746 -9.974203 -0.490819 3.610291 -6.390544 -14.443373 -23.687154 -2.436225 -1.358261 -4.999482 -0.132509 1.987149 12.388331 1.237100 0.000000 -39.335700 10.103857 -0.040145 -4.151321 3.336851 -21.672266 -12.820657 1.414005 1.205444 -5.256707 -3.517074 -24.064341 4.892513 -7.891300 -0.000000 -57.398100
4.490083 17.375825 1.119552 8.862616 -53.721791 14.297160 -9.982779 -0.483048 3.561828 -6.281734 -14.226327 -23.784597 -2.405985 -1.357021 -5.034996 -0.107171 2.161921 12.314524 1.290500 0.000000 -39.404900 10.081596 -0.028654 -4.125510 3.483016 -21.400628 -13.029989 1.438038 1.215616 -5.183335 -3.450222 -23.886881 4.854623 -7.862700 0.000000 -57.385000
4.497908 17.376214 1.119215 8.683799 -54.167044 14.535558 -9.991214 -0.470718 3.521365 -6.185522 -13.995711 -23.905174 -2.379291 -1.356530 -5.060884 -0.085656 2.309550 12.239781 1.335600 -0.000000 -39.463600 10.060356 -0.018888 -4.086964 3.628593 -21.120447 -13.259142 1.461157 1.227137 -5.102073 -3.380891 -23.722467 4.816020 -7.844400 -0.000000 -57.355900
4.504345 17.376780 1.120378 8.507445 -54.608290 14.786791 -9.999509 -0.455654 3.488119 -6.100919 -13.751431 -24.048001 -2.356634 -1.357917 -5.082770 -0.067477 2.433662 12.164653 1.373700 -0.000000 -39.511100 10.040320 -0.012004 -4.033257 3.773386 -20.823465 -13.507603 1.482396 1.240340 -5.021562 -3.313530 -23.575610 4.780729 -7.835901 -0.000000 -57.330200
4.509651 17.377356 1.122816 8.335838 -55.050222 15.047531 -10.008210 -0.439970 3.458985 -6.028392 -13.492715 -24.208361 -2.337895 -1.361402 -5.102284 -0.052133 2.539897 12.087920 1.406400 0.000000 -39.550800 10.021047 -0.007864 -3.965519 3.914305 -20.505973 -13.770433 1.501386 1.255132 -4.948398 -3.251150 -23.443010 4.750328 -7.832900 -0.000001 -57.301000
4.514062 17.377812 1.126332 8.169293 -55.493868 15.318461 -10.017994 -0.425491 3.431922 -5.967570 -13.216821 -24.382696 -2.323472 -1.367710 -5.126807 -0.039294 2.628121 12.011745 1.433500 0.000000 -39.585600 10.001979 -0.006835 -3.884211 4.051406 -20.166361 -14.047025 1.518223 1.271473 -4.886714 -3.195278 -23.322632 4.725242 -7.832800 0.000000 -57.276500
4.517762 17.378028 1.130605 8.013818 -55.944040 15.591825 -10.029156 -0.414128 3.403721 -5.917103 -12.930629 -24.566554 -2.311872 -1.375877 -5.146013 -0.027808 2.712926 11.927608 1.460000 -0.000000 -39.619301 9.982453 -0.007782 -3.794149 4.179759 -19.808297 -14.329718 1.533158 1.288492 -4.837047 -3.145376 -23.205569 4.703334 -7.830600 -0.000000 -57.245200
4.521195 17.377920 1.135496 7.865713 -56.398255 15.867718 -10.042347 -0.407327 3.372904 -5.876329 -12.633720 -24.756596 -2.303119 -1.386079 -5.165253 -0.017450 2.792562 11.837702 1.484900 -0.000000 -39.653200 9.961575 -0.010501 -3.698114 4.300533 -19.437986 -14.619783 1.547103 1.305467 -4.796984 -3.099821 -23.087575 4.685027 -7.825500 0.000000 -57.226300
4.524450 17.377436 1.140685 7.730777 -56.858214 16.140225 -10.057731 -0.405767 3.337498 -5.844507 -12.330689 -24.950692 -2.296154 -1.397312 -5.175854 -0.007811 2.874649 11.736330 1.510800 -0.000001 -39.689900 9.938855 -0.013798 -3.600655 4.411287 -19.062225 -14.913456 1.560705 1.321526 -4.761961 -3.055670 -22.960559 4.665556 -7.814400 0.000000 -57.207200
4.527668 17.376545 1.146265 7.602944 -57.317393 16.416740 -10.076157 -0.409013 3.297803 -5.823435 -12.011743 -25.148450 -2.292600 -1.410500 -5.194392 0.000303 2.940898 11.635729 1.531100 -0.000000 -39.729500 9.913741 -0.017973 -3.502054 4.517903 -18.688486 -15.219823 1.575346 1.336610 -4.726518 -3.010165 -22.823871 4.644349 -7.799700 -0.000000 -57.204800
4.531192 17.375341 1.151832 7.489533 -57.778868 16.681136 -10.096675 -0.417382 3.252010 -5.811615 -11.693554 -25.347009 -2.289527 -1.422916 -5.193868 0.007759 3.013288 11.519184 1.553700 -0.000000 -39.772600 9.886256 -0.020414 -3.410387 4.612605 -18.328805 -15.527489 1.591354 1.348867 -4.682086 -2.958790 -22.666653 4.616300 -7.777700 0.000000 -57.206400
4.534963 17.373829 1.157541 7.386246 -58.235913 16.939359 -10.119321 -0.429214 3.201959 -5.811273 -11.369063 -25.547505 -2.288512 -1.435303 -5.187944 0.013627 3.074788 11.398239 1.572800 -0.000001 -39.817600 9.856667 -0.021333 -3.324995 4.700841 -17.990299 -15.845349 1.609812 1.358453 -4.622713 -2.898749 -22.489858 4.580315 -7.751699 -0.000000 -57.221200
4.538982 17.372061 1.163337 7.295007 -58.685495 17.187891 -10.143457 -0.442974 3.148498 -5.824415 -11.039038 -25.749104 -2.289810 -1.447243 -5.176324 0.017508 3.121427 11.275278 1.586999 0.000000 -39.863300 9.825729 -0.019953 -3.247399 4.782022 -17.679751 -16.173669 1.630967 1.364957 -4.542108 -2.827556 -22.292997 4.534033 -7.723200 0.000000 -57.250299
